<svg xmlns="http://www.w3.org/2000/svg" xmlns:xlink="http://www.w3.org/1999/xlink" width="24" height="24" viewBox="0 0 24 24">
  <defs>
    <clipPath id="clip-path">
      <rect id="Rectangle_4414" data-name="Rectangle 4414" width="24" height="24" transform="translate(299 0.286)" fill="none" stroke="#4c5157" stroke-width="1.5"/>
    </clipPath>
    <clipPath id="clip-path-2">
      <rect id="Rectangle_4992" data-name="Rectangle 4992" width="16.679" height="22.6" fill="#344957"/>
    </clipPath>
  </defs>
  <g id="Group_13155" data-name="Group 13155" transform="translate(-299 -0.286)" clip-path="url(#clip-path)">
    <g id="Group_16927" data-name="Group 16927" transform="translate(302.66 0.985)">
      <g id="Group_16926" data-name="Group 16926" clip-path="url(#clip-path-2)">
        <path id="Path_30649" data-name="Path 30649" d="M15.849,6.742a2.972,2.972,0,0,1-.146.378c-.2.362-.262.666.14.971a.5.5,0,0,1,0,.782c-.309.334-.628.662-.967.964-.311.277-.612.185-.891-.092-.13-.129-.241-.389-.495-.193-.274.21-.822.092-.761.714.048.488-.194.686-.688.693-.4.006-.793,0-1.19,0-.344,0-.615-.177-.582-.516a.674.674,0,0,0-.614-.82,1.911,1.911,0,0,1-.345-.154c-.87.712-.87.712-1.676-.1l-.094-.093c-.769-.769-.769-.774-.034-1.61A5.445,5.445,0,0,0,7.2,6.922a.512.512,0,0,0-.369-.19c-.691-.037-.809-.148-.811-.845,0-.279,0-.558,0-.837,0-.655.153-.808.793-.815.1,0,.2,0,.328,0a6.734,6.734,0,0,1,.278-.643.375.375,0,0,0-.094-.527c-.482-.474-.47-.7.007-1.171.219-.217.436-.437.657-.652C8.37.868,8.618.867,9,1.225c.161.149.276.4.579.2s.75-.149.684-.724c-.058-.5.17-.692.667-.7q.551-.008,1.1,0c.5.006.686.2.714.684.012.21-.12.482.239.568s.664.436,1.032-.046c.283-.371.6-.335.944-.009.265.254.523.516.779.779.372.382.368.628,0,1.019-.14.15-.389.265-.193.54s.109.778.708.71c.512-.058.71.188.717.708,0,.338,0,.676,0,1.014-.005.575-.182.746-.771.754-.116,0-.232.011-.357.017M13.706,5.525a2.209,2.209,0,0,0-2.185-2.239,2.227,2.227,0,1,0,2.185,2.239" transform="translate(-5.649 0)" fill="#344957"/>
        <path id="Path_30650" data-name="Path 30650" d="M16.555,98.1a2.413,2.413,0,0,0-.267-.4c-.143-.176-.289-.352-.431-.523-.207-.249-.422-.506-.623-.764a1.33,1.33,0,0,1-.2-1.5,3.042,3.042,0,0,0,0-2.542,5.661,5.661,0,0,0-1.706-2.206c-.13-.106-.266-.2-.408-.3v.752l.025.019a5.069,5.069,0,0,1,1.53,1.972,2.457,2.457,0,0,1,0,2.053,1.93,1.93,0,0,0,.276,2.125c.207.265.425.525.635.778.141.169.286.343.426.516a1.8,1.8,0,0,1,.2.3c.09.174.084.2-.077.3s-.309.175-.479.26l-.192.1a.694.694,0,0,0-.372.408.674.674,0,0,0,.077.531l.053.1c.055.1.108.194.154.29a.665.665,0,0,1,.034.084.651.651,0,0,1-.082.027c-.122.033-.249.061-.395.094l-.233.053-.6.139.879.722-.124.109a.838.838,0,0,0-.232,1.2,2.4,2.4,0,0,1,.194.525.663.663,0,0,1-.066.532.522.522,0,0,1-.405.169,12.5,12.5,0,0,1-1.441-.035c-.21-.013-.428-.027-.644-.036-.086,0-.173-.009-.26-.015a4.81,4.81,0,0,0-.617-.015.823.823,0,0,0-.835.866,7.374,7.374,0,0,0,.064.863c.011.094.022.189.031.283.029.289,0,.354-.014.368s-.067.058-.35.088a3.067,3.067,0,0,1-.331.014q-3.384,0-6.769,0a1.4,1.4,0,0,1-.506-.052,1.425,1.425,0,0,1,.165-.489A12.321,12.321,0,0,0,3.682,102.9a2.523,2.523,0,0,0-.64-2.274,10.162,10.162,0,0,1-1.782-2.44,6.854,6.854,0,0,1-.6-3.784l-.509-.7A7.591,7.591,0,0,0,.71,98.447a10.676,10.676,0,0,0,1.883,2.59,1.926,1.926,0,0,1,.491,1.758,11.663,11.663,0,0,1-.992,2.806c-.209.459-.3.8-.128,1.072s.521.327,1.021.327H9.754a3.721,3.721,0,0,0,.4-.018c.742-.08.979-.373.9-1.12-.01-.1-.021-.194-.032-.292a6.8,6.8,0,0,1-.06-.792c0-.159.043-.248.264-.262a4.281,4.281,0,0,1,.54.015c.092.006.184.013.276.016.209.009.423.022.631.035a12.961,12.961,0,0,0,1.512.035,1.1,1.1,0,0,0,.853-.405,1.229,1.229,0,0,0,.18-1.026,2.947,2.947,0,0,0-.24-.663.666.666,0,0,1-.1-.277c0-.019.033-.073.187-.212.082-.073.166-.146.256-.222l.132-.113.273-.236-.485-.4.049-.013a.611.611,0,0,0,.437-.959c-.054-.112-.113-.219-.171-.323l-.051-.093a.245.245,0,0,1-.026-.062.275.275,0,0,1,.068-.046l.185-.094c.176-.088.357-.179.531-.29a.747.747,0,0,0,.291-1.091" transform="translate(0 -84.402)" fill="#344957" stroke="#344957" stroke-width="0.5"/>
      </g>
    </g>
  </g>
</svg>
