<svg xmlns="http://www.w3.org/2000/svg" xmlns:xlink="http://www.w3.org/1999/xlink" width="24" height="24" viewBox="0 0 24 24">
  <defs>
    <clipPath id="clip-path">
      <rect id="Rectangle_3088" data-name="Rectangle 3088" width="24" height="24" fill="#fff" stroke="#4c5157" stroke-width="1"/>
    </clipPath>
  </defs>
  <g id="Mask_Group_30" data-name="Mask Group 30" clip-path="url(#clip-path)">
    <path id="Path_510" data-name="Path 510" d="M21.75,6.75v10.5A2.25,2.25,0,0,1,19.5,19.5H4.5a2.25,2.25,0,0,1-2.25-2.25V6.75m19.5,0A2.25,2.25,0,0,0,19.5,4.5H4.5A2.25,2.25,0,0,0,2.25,6.75m19.5,0v.243a2.25,2.25,0,0,1-1.07,1.916l-7.5,4.615a2.25,2.25,0,0,1-2.36,0L3.32,8.91A2.25,2.25,0,0,1,2.25,6.994V6.75" transform="translate(0 0.15)" fill="none" stroke="#4c5157" stroke-linecap="round" stroke-linejoin="round" stroke-width="1.5"/>
  </g>
</svg>
