<svg xmlns="http://www.w3.org/2000/svg" xmlns:xlink="http://www.w3.org/1999/xlink" width="24" height="24" viewBox="0 0 24 24">
  <defs>
    <clipPath id="clip-path">
      <rect id="Rectangle_710" data-name="Rectangle 710" width="24" height="24" fill="#a4aebc"/>
    </clipPath>
    <clipPath id="clip-path-2">
      <rect id="Rectangle_3660" data-name="Rectangle 3660" width="22.325" height="19.635" fill="#a4aebc"/>
    </clipPath>
  </defs>
  <g id="Mask_Group_29" data-name="Mask Group 29" clip-path="url(#clip-path)">
    <g id="Group_13463" data-name="Group 13463" transform="translate(1.496 2)">
      <g id="Group_13462" data-name="Group 13462" clip-path="url(#clip-path-2)">
        <path id="Path_7020" data-name="Path 7020" d="M4.92,5.4c-.062-.056-.125-.115-.189-.172Q2.525,3.308.319,1.384a.771.771,0,1,1,1-1.166c.633.545,1.26,1.1,1.89,1.644l17.526,15.27c.448.39.9.776,1.339,1.176a.756.756,0,0,1,.154.926.739.739,0,0,1-.836.377,1.129,1.129,0,0,1-.432-.243Q19.023,17.692,17.1,16a.3.3,0,0,0-.43-.033,11.18,11.18,0,0,1-4.4,1.649,8.761,8.761,0,0,1-3.918-.392,15.255,15.255,0,0,1-5.929-3.791C1.647,12.681.959,11.849.254,11.037a.785.785,0,0,1-.007-1.15A21.521,21.521,0,0,1,4.683,5.6c.065-.047.13-.094.194-.142A.355.355,0,0,0,4.92,5.4m10.759,9.368-1.9-1.659a3.922,3.922,0,0,1-5.026.143,3.825,3.825,0,0,1-1.34-2.036,3.883,3.883,0,0,1,.526-3.2c-.566-.494-1.119-.971-1.663-1.458-.119-.106-.193-.047-.29.017a18.672,18.672,0,0,0-3.2,2.73c-.351.371-.686.757-1.034,1.143a18.693,18.693,0,0,0,5.431,4.6,8.583,8.583,0,0,0,3.735,1.08,8.819,8.819,0,0,0,4.766-1.368M9.137,9.07a2.318,2.318,0,0,0,3.43,2.988L9.137,9.07" transform="translate(0 0)" fill="#a4aebc"/>
        <path id="Path_7021" data-name="Path 7021" d="M133.406,57.589a17.345,17.345,0,0,0-6.578-5.14,7.361,7.361,0,0,0-5.179-.2.78.78,0,0,1-.9-.208.671.671,0,0,1-.1-.826,1.022,1.022,0,0,1,.5-.412,8.754,8.754,0,0,1,5.626-.013A15,15,0,0,1,132,53.916a21.455,21.455,0,0,1,2.881,3.067.807.807,0,0,1,0,1.134,21.9,21.9,0,0,1-2.616,2.823.778.778,0,0,1-1.138,0,.8.8,0,0,1,.1-1.136c.724-.726,1.441-1.461,2.18-2.212" transform="translate(-112.788 -47.091)" fill="#a4aebc"/>
      </g>
    </g>
  </g>
</svg>
