<svg id="Group_16029" data-name="Group 16029" xmlns="http://www.w3.org/2000/svg" xmlns:xlink="http://www.w3.org/1999/xlink" width="42.124" height="42.161" viewBox="0 0 42.124 42.161">
  <defs>
    <clipPath id="clip-path">
      <rect id="Rectangle_4441" data-name="Rectangle 4441" width="42.124" height="42.161" fill="#4c5157" stroke="#4c5157" stroke-width="1"/>
    </clipPath>
  </defs>
  <g id="Group_16011" data-name="Group 16011" clip-path="url(#clip-path)">
    <path id="Path_28277" data-name="Path 28277" d="M39.948,19.975A19.974,19.974,0,1,1,20.273,0,20.034,20.034,0,0,1,39.948,19.975m-1.883-.017A18.1,18.1,0,1,0,20.158,38.109,18.091,18.091,0,0,0,38.065,19.957" transform="translate(1.088 1.089)" fill="#4c5157" stroke="#4c5157" stroke-width="1"/>
    <path id="Path_28278" data-name="Path 28278" d="M74.861,122.374a7.848,7.848,0,0,1,4.474,1.648,7.559,7.559,0,0,1,1.947,2.168,1.169,1.169,0,0,1-.732,1.779,1.185,1.185,0,0,1-1.249-.624,5.434,5.434,0,0,0-2.252-2.1,5.506,5.506,0,0,0-7.158,2.074,1.167,1.167,0,0,1-1.739.424,1.129,1.129,0,0,1-.363-1.273,3.272,3.272,0,0,1,.342-.658,7.79,7.79,0,0,1,3.52-2.846,8.469,8.469,0,0,1,3.209-.594" transform="translate(-53.534 -97.614)" fill="#4c5157" stroke="#4c5157" stroke-width="1"/>
    <path id="Path_28279" data-name="Path 28279" d="M122.668,74.6h.618c.625,0,1.251,0,1.876.011a1.165,1.165,0,0,1,1.115.725,1.187,1.187,0,0,1-.816,1.518,2.982,2.982,0,0,1-.406.034q-2.73,0-5.46,0a1.149,1.149,0,0,1-1.105-1.652,3.15,3.15,0,0,1,.7-.745c.992-.874,1.994-1.736,3-2.6.267-.23.538-.456.815-.673a1.155,1.155,0,0,1,1.3-.178,1.121,1.121,0,0,1,.238,1.84c-.493.447-1.01.867-1.515,1.3-.131.112-.26.228-.39.342Z" transform="translate(-94.372 -56.111)" fill="#4c5157" stroke="#4c5157" stroke-width="1"/>
    <path id="Path_28280" data-name="Path 28280" d="M50.616,74.534c-.633-.557-1.2-1.071-1.787-1.569a1.207,1.207,0,0,1-.5-1.241,1.068,1.068,0,0,1,1.608-.71,11.785,11.785,0,0,1,1.261,1c.913.781,1.815,1.575,2.721,2.365.193.168.385.339.571.515a1.055,1.055,0,0,1,.274,1.192,1.035,1.035,0,0,1-.935.723c-.471.035-.945.027-1.418.027q-2.093,0-4.185,0a1.257,1.257,0,0,1-1.015-.34,1.08,1.08,0,0,1-.267-1.194,1.056,1.056,0,0,1,.992-.717c.785-.031,1.571-.021,2.356-.03.085,0,.17-.008.321-.016" transform="translate(-36.713 -56.056)" fill="#4c5157" stroke="#4c5157" stroke-width="1"/>
  </g>
</svg>
